<?xml version="1.0" encoding="UTF-8" standalone="no"?>
<!-- Creator: CorelDRAW X7 -->

<svg
   xml:space="preserve"
   width="275.20001mm"
   height="276.63mm"
   version="1.1"
   style="clip-rule:evenodd;fill-rule:evenodd;image-rendering:optimizeQuality;shape-rendering:geometricPrecision;text-rendering:geometricPrecision"
   viewBox="0 0 27520.001 27663"
   id="svg112"
   sodipodi:docname="silqoin.svg"
   inkscape:export-filename="C:\Users\samfe\Downloads\black flower final.png"
   inkscape:export-xdpi="96"
   inkscape:export-ydpi="96"
   inkscape:version="1.1 (c68e22c387, 2021-05-23)"
   xmlns:inkscape="http://www.inkscape.org/namespaces/inkscape"
   xmlns:sodipodi="http://sodipodi.sourceforge.net/DTD/sodipodi-0.dtd"
   xmlns="http://www.w3.org/2000/svg"
   xmlns:svg="http://www.w3.org/2000/svg"><sodipodi:namedview
   id="namedview114"
   pagecolor="#ffffff"
   bordercolor="#666666"
   borderopacity="1.0"
   inkscape:pageshadow="2"
   inkscape:pageopacity="0.0"
   inkscape:pagecheckerboard="0"
   inkscape:document-units="mm"
   showgrid="false"
   inkscape:zoom="0.21127177"
   inkscape:cx="456.75767"
   inkscape:cy="328.96019"
   inkscape:window-width="1920"
   inkscape:window-height="1009"
   inkscape:window-x="-8"
   inkscape:window-y="-8"
   inkscape:window-maximized="1"
   inkscape:current-layer="Capa_x0020_1" />
 <defs
   id="defs45">
  <style
   type="text/css"
   id="style2">
   <![CDATA[
    .fil2 {fill:none}
    .fil1 {fill:#FEFEFE}
    .fil4 {fill:#4B4B4D}
    .fil5 {fill:#505050}
    .fil8 {fill:#B04302}
    .fil6 {fill:#F89300}
    .fil9 {fill:#FF7819}
    .fil0 {fill:url(#id6)}
    .fil3 {fill:url(#id7)}
    .fil7 {fill:url(#id8)}
   ]]>
  </style>
   <clipPath
   id="id0">
    <path
   d="m 68225,37901 c 7323,0 13260,-5929 13260,-13242 0,-7314 -5937,-13243 -13260,-13243 -7324,0 -13261,5929 -13261,13243 0,7313 5937,13242 13261,13242 z"
   id="path4" />
   </clipPath>
     <mask
   id="id1">
  <linearGradient
   id="id2"
   gradientUnits="userSpaceOnUse"
   x1="49331.699"
   y1="5687.7998"
   x2="79778.102"
   y2="33736.699">
   <stop
   offset="0"
   style="stop-opacity:0; stop-color:white"
   id="stop7" />
   <stop
   offset="1"
   style="stop-opacity:1; stop-color:white"
   id="stop9" />
  </linearGradient>
      <rect
   style="fill:url(#id2)"
   x="41399"
   y="6640"
   width="46311"
   height="26145"
   id="rect12" />
     </mask>
     <mask
   id="id3">
  <linearGradient
   id="id4"
   gradientUnits="userSpaceOnUse"
   x1="53668.5"
   y1="10695.5"
   x2="80460.203"
   y2="35377.398">
   <stop
   offset="0"
   style="stop-opacity:0; stop-color:white"
   id="stop15" />
   <stop
   offset="1"
   style="stop-opacity:1; stop-color:white"
   id="stop17" />
  </linearGradient>
      <rect
   style="fill:url(#id4)"
   x="46418"
   y="11824"
   width="41292"
   height="22425"
   id="rect20" />
     </mask>
   <clipPath
   id="id5">
    <path
   d="m 69092,11438 c 3519,136 7374,2539 9624,5181 2331,2382 3768,5643 3768,9239 0,7296 -5914,13211 -13210,13211 -7296,0 -13845,-6671 -14289,-13708 -185,-8998 6761,-14334 14107,-13923 z m -917,-32 c 7296,0 13210,5915 13210,13211 0,7296 -5914,13211 -13210,13211 -7296,0 -13211,-5915 -13211,-13211 0,-7296 5915,-13211 13211,-13211 z"
   id="path23" />
   </clipPath>
  <linearGradient
   id="id6"
   gradientUnits="userSpaceOnUse"
   x1="79105"
   y1="36030"
   x2="57344.398"
   y2="13287.4">
   <stop
   offset="0"
   style="stop-opacity:1; stop-color:#F2EB3A"
   id="stop26" />
   <stop
   offset="0.839216"
   style="stop-opacity:1; stop-color:#F8F49C"
   id="stop28" />
   <stop
   offset="1"
   style="stop-opacity:1; stop-color:#FEFEFE"
   id="stop30" />
  </linearGradient>
  <linearGradient
   id="id7"
   gradientUnits="userSpaceOnUse"
   x1="80467"
   y1="34352.602"
   x2="56015.301"
   y2="15094.2">
   <stop
   offset="0"
   style="stop-opacity:1; stop-color:#E9AF44"
   id="stop33" />
   <stop
   offset="0.639216"
   style="stop-opacity:1; stop-color:#EFC446"
   id="stop35" />
   <stop
   offset="1"
   style="stop-opacity:1; stop-color:#F6DA48"
   id="stop37" />
  </linearGradient>
  <linearGradient
   id="id8"
   gradientUnits="userSpaceOnUse"
   x1="80147.797"
   y1="27969.801"
   x2="67244.203"
   y2="36785.102">
   <stop
   offset="0"
   style="stop-opacity:1; stop-color:#DF5400"
   id="stop40" />
   <stop
   offset="1"
   style="stop-opacity:1; stop-color:#FE9800"
   id="stop42" />
  </linearGradient>
 </defs>
 <g
   id="Capa_x0020_1"
   inkscape:label="Capa 1"
   inkscape:groupmode="layer"
   transform="translate(-54964,-11406)">
  <metadata
   id="CorelCorpID_0Corel-Layer" />
  <path
   class="fil0"
   d="m 68225,37901 c 7323,0 13260,-5929 13260,-13242 0,-7314 -5937,-13243 -13260,-13243 -7324,0 -13261,5929 -13261,13243 0,7313 5937,13242 13261,13242 z"
   id="path48"
   style="fill:url(#id6)" />
  <g
   clip-path="url(#id0)"
   id="g54">
   <g
   id="_2741013157024">
    <polygon
   id="1"
   class="fil1"
   points="86845,32775 41409,8585 42265,6650 87700,30839 "
   mask="url(#id1)" />
    <polygon
   class="fil1"
   points="87583,34239 46428,12519 46546,11834 87700,33554 "
   mask="url(#id3)"
   id="polygon51" />
   </g>
  </g>
  <path
   class="fil2"
   d="m 68225,37901 c 7323,0 13260,-5929 13260,-13242 0,-7314 -5937,-13243 -13260,-13243 -7324,0 -13261,5929 -13261,13243 0,7313 5937,13242 13261,13242 z"
   id="path56" />
  <ellipse
   class="fil3"
   cx="68241"
   cy="24723"
   rx="11071"
   ry="11105"
   id="ellipse58"
   style="fill:url(#id7)" />
  <g
   id="_2741013318144">
   <path
   class="fil4"
   d="m 64783,21823 c 1338,254 2302,1332 3158,2657 -196,58 -365,143 -502,263 -357,-140 -667,-368 -974,-601 285,248 598,480 820,767 -75,101 -134,218 -177,355 -1921,-468 -3645,-1470 -5277,-2720 813,-418 1812,-740 2952,-721 z"
   id="path60" />
   <path
   class="fil4"
   d="m 62819,25434 c 1431,1173 1986,1279 4428,1296 61,-9 250,-247 305,-257 -125,-74 -221,-185 -305,-312 -49,-68 -91,-86 -122,-171 -631,88 -765,-205 -1155,-163 369,-87 898,189 1106,-105 -15,-131 -7,-283 33,-459 l -5278,-2719 c 124,906 319,1967 988,2890 z"
   id="path62" />
   <path
   class="fil4"
   d="m 68225,18663 v 5996 c -709,-1070 -1427,-2080 -2245,-2490 -55,-1805 1201,-2572 2245,-3506 z"
   id="path64" />
   <path
   class="fil4"
   d="m 64018,26469 c 882,325 1875,524 3127,433 -1205,1245 -2689,1906 -4306,2287 156,-1193 499,-2160 1179,-2720 z"
   id="path66" />
   <path
   class="fil4"
   d="m 66641,29028 c -38,-681 156,-1357 504,-2126 l -4286,2276 c 838,539 2782,1067 3782,-150 z"
   id="path68" />
   <path
   class="fil4"
   d="m 68044,24634 -10,1381 c -286,75 -446,198 -557,340 -511,-774 -279,-1530 567,-1721 z"
   id="path70" />
   <path
   class="fil4"
   d="m 66942,27778 c 338,-936 744,-1568 1278,-1630 l 16,4694 c -604,-435 -1089,-952 -1376,-1606 -108,-451 -105,-930 82,-1458 z"
   id="path72" />
   <path
   class="fil4"
   d="m 71843,21823 c -1338,254 -2302,1332 -3158,2657 196,58 365,143 502,263 357,-140 667,-368 974,-601 -285,248 -598,480 -820,767 75,101 134,218 177,355 l 5277,-2720 c -813,-418 -1812,-740 -2952,-721 z"
   id="path74" />
   <path
   class="fil4"
   d="m 73807,25434 c -1431,1173 -1986,1279 -4428,1296 -61,-9 -250,-247 -306,-257 126,-74 222,-185 306,-312 49,-68 91,-86 122,-171 631,88 765,-205 1155,-163 -369,-87 -898,189 -1106,-105 15,-131 7,-283 -33,-459 1385,-1365 3153,-2260 5278,-2719 -124,906 -319,1967 -988,2890 z"
   id="path76" />
   <path
   class="fil4"
   d="m 68401,18663 v 5996 c 709,-1070 1427,-2080 2245,-2490 55,-1805 -1201,-2572 -2245,-3506 z"
   id="path78" />
   <path
   class="fil4"
   d="m 72607,26469 c -881,325 -1874,524 -3127,433 l 4307,2287 c -156,-1193 -499,-2160 -1180,-2720 z"
   id="path80" />
   <path
   class="fil4"
   d="m 69985,29028 c 38,-681 -156,-1357 -505,-2126 1621,480 3119,1138 4287,2276 -838,539 -2782,1067 -3782,-150 z"
   id="path82" />
   <path
   class="fil4"
   d="m 68582,24634 10,1381 c 286,75 446,198 557,340 511,-774 279,-1530 -567,-1721 z"
   id="path84" />
   <path
   class="fil4"
   d="m 69684,27778 c -338,-936 -744,-1568 -1278,-1630 l -16,4694 c 604,-435 1089,-952 1376,-1606 107,-451 105,-930 -82,-1458 z"
   id="path86" />
  </g>
  <g
   id="_2741013315104">
   <path
   class="fil5"
   d="m 71292,34461 -421,383 -49,14 -494,-1696 c -17,-58 -32,-103 -43,-136 -12,-32 -23,-57 -33,-73 -10,-16 -21,-27 -33,-32 -12,-5 -27,-9 -44,-11 -35,-7 -98,2 -189,28 l -16,-55 758,-221 16,54 c -48,16 -86,29 -114,42 -29,12 -50,24 -64,36 -15,12 -25,24 -30,36 -5,12 -8,25 -10,38 -3,30 13,104 47,223 l 316,1083 c 44,148 76,240 97,277 17,30 37,49 59,58 22,10 46,11 72,4 38,-11 85,-41 140,-91 z m -1784,403 -487,294 -51,4 -155,-1759 c -5,-61 -11,-108 -16,-142 -5,-34 -11,-60 -18,-78 -6,-18 -15,-31 -26,-38 -11,-8 -25,-14 -40,-20 -34,-13 -98,-17 -192,-9 l -5,-57 787,-69 5,56 c -50,6 -90,12 -120,19 -30,6 -53,14 -70,23 -17,9 -29,18 -36,30 -7,10 -13,22 -17,35 -9,29 -8,104 3,227 l 99,1124 c 13,154 27,251 41,291 11,32 27,55 47,69 19,13 42,19 69,17 40,-4 91,-24 155,-62 z m -1771,68 -529,209 -51,-4 138,-1760 c 4,-61 7,-109 8,-143 0,-35 -1,-61 -5,-80 -4,-19 -10,-33 -20,-42 -10,-9 -22,-18 -37,-26 -30,-18 -93,-32 -187,-41 l 5,-56 787,61 -5,57 c -50,-3 -90,-4 -121,-2 -31,2 -55,5 -73,11 -18,6 -31,14 -40,24 -9,9 -17,20 -23,32 -13,27 -25,101 -34,224 l -88,1125 c -12,154 -15,252 -8,294 6,34 18,59 35,75 17,17 39,27 66,29 39,3 93,-9 162,-36 z m -1808,-256 -559,103 -49,-14 474,-1701 c 17,-58 29,-105 36,-138 7,-34 11,-61 10,-80 1,-19 -3,-34 -11,-45 -7,-10 -18,-22 -31,-32 -26,-25 -85,-50 -175,-76 l 15,-55 760,212 -15,55 c -49,-13 -88,-21 -119,-25 -30,-5 -54,-6 -73,-3 -19,2 -34,7 -45,15 -10,7 -20,16 -28,27 -18,24 -44,94 -77,214 l -303,1086 c -42,149 -63,245 -64,287 -1,34 5,61 19,81 14,19 33,33 59,40 38,11 94,10 167,-3 z m -1248,-1266 c -111,213 -238,379 -380,496 -53,44 -110,83 -171,118 -61,34 -123,60 -186,78 -63,17 -126,24 -190,21 -64,-3 -126,-20 -186,-51 -141,-74 -231,-213 -269,-418 -48,-253 9,-533 169,-841 38,-73 78,-141 119,-204 41,-63 85,-122 132,-175 47,-53 97,-101 152,-145 53,-43 113,-81 177,-113 41,-20 85,-37 132,-49 48,-13 96,-20 144,-23 47,-3 94,0 140,8 45,8 86,22 123,41 78,41 140,102 186,184 46,82 74,178 85,288 12,115 4,240 -24,374 -29,135 -80,272 -153,411 z m -251,-174 c 57,-109 105,-216 144,-318 39,-103 65,-198 80,-286 16,-95 15,-176 -2,-245 -17,-69 -55,-119 -115,-150 -24,-12 -52,-21 -84,-24 -32,-3 -66,0 -103,11 -36,11 -75,28 -115,54 -40,25 -80,61 -121,106 -62,68 -127,154 -194,259 -68,103 -139,227 -215,372 -110,211 -180,399 -211,563 -19,105 -19,190 -1,256 17,66 58,115 123,149 73,38 157,32 250,-17 92,-50 185,-139 278,-268 55,-76 106,-152 153,-228 48,-77 92,-154 133,-234 z m -1313,-675 c -150,188 -306,326 -468,413 -61,34 -125,61 -191,83 -66,22 -132,36 -197,41 -66,5 -129,0 -192,-15 -62,-15 -119,-44 -172,-86 -124,-100 -186,-253 -184,-461 2,-258 111,-522 327,-793 51,-65 104,-124 156,-178 52,-54 107,-103 163,-147 56,-43 115,-80 176,-113 61,-32 127,-58 196,-77 44,-12 91,-20 139,-23 49,-3 98,-1 145,5 48,7 93,18 136,35 44,16 81,38 113,63 69,55 119,128 148,217 29,89 39,188 29,299 -11,115 -43,236 -96,362 -54,127 -130,252 -228,375 z m -214,-219 c 77,-97 145,-192 202,-285 58,-94 102,-182 133,-265 34,-90 49,-171 45,-242 -3,-71 -31,-127 -83,-168 -22,-17 -48,-31 -79,-40 -30,-9 -64,-12 -103,-9 -37,3 -79,13 -123,31 -44,17 -90,44 -139,81 -74,55 -154,127 -240,216 -87,89 -180,197 -282,325 -149,186 -253,357 -315,512 -39,100 -55,183 -50,251 5,68 35,124 93,170 64,51 147,62 248,31 100,-31 208,-101 324,-210 68,-64 133,-129 194,-195 61,-65 120,-133 175,-203 z m -1166,-908 c -183,156 -363,262 -539,316 -66,21 -133,37 -202,45 -70,9 -137,10 -202,3 -65,-8 -127,-25 -185,-52 -58,-26 -108,-66 -152,-117 -104,-122 -135,-284 -93,-488 51,-253 209,-491 473,-716 63,-53 125,-101 187,-145 62,-43 124,-80 188,-112 64,-31 128,-57 195,-77 66,-20 135,-33 207,-39 45,-3 92,-2 141,5 49,6 96,17 141,32 45,16 88,36 127,60 39,25 72,53 99,84 57,67 92,148 103,241 12,93 2,193 -29,299 -33,111 -87,223 -164,337 -77,114 -175,222 -295,324 z m -168,-255 c 95,-81 179,-161 253,-242 75,-80 135,-159 181,-234 51,-82 81,-158 91,-229 10,-70 -7,-130 -50,-181 -18,-21 -41,-39 -69,-54 -28,-15 -61,-25 -99,-29 -38,-4 -80,-1 -127,7 -47,9 -97,27 -152,53 -83,40 -176,95 -278,167 -101,70 -214,158 -338,264 -182,154 -317,302 -407,442 -57,91 -90,169 -98,237 -8,68 11,129 59,184 53,63 133,90 237,79 105,-12 224,-59 359,-144 79,-50 155,-102 227,-154 73,-53 143,-109 211,-166 z m -1837,-911 -469,-322 -25,-44 1536,-872 c 53,-30 94,-55 122,-73 30,-19 51,-36 64,-49 14,-13 22,-27 23,-40 3,-13 3,-28 2,-45 -2,-36 -26,-95 -71,-178 l 49,-28 390,687 -49,28 c -26,-44 -48,-77 -67,-102 -18,-24 -35,-42 -50,-53 -15,-12 -29,-19 -42,-21 -13,-2 -26,-2 -39,-1 -30,4 -98,36 -206,97 l -981,557 c -134,76 -217,129 -247,158 -25,24 -39,48 -44,71 -4,24 1,48 14,71 19,34 59,73 120,115 z m 12,-1754 c -228,78 -434,111 -617,97 -70,-4 -138,-15 -206,-32 -68,-17 -130,-41 -188,-72 -58,-31 -109,-69 -153,-115 -44,-46 -77,-101 -99,-166 -52,-151 -21,-313 92,-487 140,-217 375,-381 703,-493 78,-27 153,-49 226,-66 74,-18 146,-30 217,-36 71,-6 140,-6 209,-1 69,6 138,20 207,40 44,14 87,32 130,56 43,24 83,51 120,82 36,31 68,65 95,103 28,37 48,75 62,114 28,83 31,171 7,262 -23,91 -68,180 -136,267 -71,92 -163,176 -276,254 -114,78 -245,142 -393,193 z m -63,-299 c 117,-40 225,-84 324,-132 99,-47 184,-98 254,-152 78,-57 133,-117 168,-179 35,-61 42,-124 20,-187 -8,-26 -23,-51 -44,-75 -21,-25 -48,-46 -82,-64 -34,-17 -74,-31 -120,-40 -47,-9 -100,-11 -161,-6 -92,7 -199,24 -320,53 -120,29 -257,69 -411,122 -226,77 -406,165 -541,263 -87,63 -146,124 -178,184 -32,60 -37,124 -13,193 27,78 91,132 193,160 101,28 230,27 386,-2 92,-18 181,-38 268,-60 87,-23 173,-49 257,-78 z m -466,-1354 c -236,43 -445,44 -624,3 -68,-15 -134,-35 -198,-62 -65,-28 -123,-60 -176,-100 -52,-39 -97,-84 -134,-137 -36,-52 -60,-112 -72,-178 -29,-157 26,-313 164,-469 172,-192 428,-319 769,-381 81,-14 159,-25 234,-31 75,-6 149,-7 219,-3 71,5 140,15 208,31 67,16 133,40 198,71 41,20 81,44 120,74 39,30 74,64 106,99 31,37 58,75 79,116 22,41 36,82 43,122 16,87 6,174 -31,261 -37,86 -95,167 -176,243 -84,80 -187,150 -311,210 -124,60 -263,104 -418,131 z m -16,-305 c 122,-22 235,-49 340,-81 105,-32 196,-70 274,-112 85,-45 149,-96 193,-152 44,-56 60,-116 48,-182 -5,-27 -16,-54 -33,-81 -16,-28 -40,-52 -71,-75 -31,-22 -68,-42 -113,-58 -45,-16 -97,-26 -158,-31 -92,-7 -200,-5 -324,5 -123,10 -265,30 -425,59 -235,42 -426,102 -574,178 -95,49 -163,101 -204,155 -41,55 -55,117 -42,189 15,82 71,144 167,187 96,43 223,62 382,56 93,-3 185,-10 274,-19 89,-9 178,-22 266,-38 z m -224,-1465 c -240,-6 -444,-47 -612,-123 -64,-28 -124,-61 -182,-101 -58,-39 -108,-83 -152,-132 -43,-49 -78,-103 -104,-162 -25,-58 -37,-121 -35,-189 4,-159 88,-301 255,-426 206,-154 483,-227 829,-219 83,2 161,7 236,16 75,9 147,22 215,41 69,19 134,42 197,72 63,29 123,65 180,109 37,27 71,60 103,97 32,37 60,77 84,118 23,42 42,85 54,129 14,45 19,88 18,129 -2,88 -29,171 -83,248 -53,78 -126,145 -220,204 -99,62 -214,109 -347,143 -133,34 -278,49 -436,46 z m 45,-303 c 124,3 240,-1 349,-12 110,-10 207,-29 292,-54 92,-28 165,-65 219,-111 54,-45 82,-101 84,-168 0,-28 -5,-57 -16,-86 -11,-31 -29,-60 -55,-88 -26,-28 -59,-55 -99,-79 -41,-25 -90,-45 -149,-62 -89,-25 -195,-46 -318,-60 -123,-15 -266,-24 -428,-28 -239,-5 -438,15 -599,60 -103,29 -179,66 -230,111 -51,46 -77,104 -79,177 -2,83 40,155 125,217 86,61 207,105 364,131 92,15 183,27 272,36 89,9 179,14 268,16 z m -724,-1901 -136,-552 11,-50 1726,374 c 59,13 106,22 140,27 35,6 61,7 80,6 19,-1 34,-5 44,-14 11,-8 21,-19 31,-33 23,-27 45,-87 66,-179 l 55,12 -167,771 -55,-12 c 9,-49 15,-89 18,-120 3,-30 2,-55 -2,-73 -3,-19 -9,-33 -17,-44 -8,-10 -18,-19 -29,-26 -25,-17 -97,-39 -218,-65 l -1103,-239 c -150,-32 -247,-48 -289,-47 -35,1 -61,10 -80,24 -19,15 -31,36 -37,62 -8,38 -4,94 13,166 z m 477,-1786 -20,-568 21,-47 1613,718 c 55,25 100,44 132,56 32,12 58,19 77,22 19,3 34,1 46,-5 12,-6 24,-15 37,-26 28,-23 61,-77 101,-162 l 52,23 -321,721 -52,-23 c 19,-47 33,-84 42,-114 9,-29 13,-53 13,-72 1,-19 -2,-34 -8,-46 -6,-12 -14,-23 -22,-32 -21,-22 -88,-58 -201,-108 l -1031,-459 c -140,-63 -232,-98 -274,-105 -33,-6 -61,-3 -82,7 -22,11 -38,28 -49,53 -16,36 -23,91 -21,165 z m 1400,-985 c -204,-128 -359,-267 -464,-418 -40,-57 -75,-117 -104,-180 -30,-64 -51,-127 -63,-192 -13,-64 -15,-128 -7,-191 8,-64 30,-124 67,-181 84,-135 230,-214 437,-236 256,-27 531,52 825,236 69,44 134,89 194,134 60,47 114,95 164,146 49,51 93,105 132,163 39,56 72,119 99,185 17,43 30,88 39,136 8,49 12,97 11,145 -1,47 -7,94 -19,139 -12,45 -28,84 -50,119 -47,75 -114,132 -199,171 -85,40 -183,60 -294,63 -116,2 -239,-16 -371,-55 -132,-39 -264,-100 -397,-184 z m 193,-237 c 105,66 207,122 306,169 99,47 192,81 278,102 94,23 175,29 245,17 70,-11 123,-45 158,-102 15,-23 25,-51 31,-82 6,-32 5,-66 -2,-103 -8,-38 -23,-77 -45,-119 -22,-42 -55,-85 -96,-129 -64,-67 -144,-139 -243,-215 -98,-75 -216,-156 -354,-243 -202,-126 -383,-211 -544,-254 -104,-28 -189,-35 -256,-23 -67,13 -119,50 -158,112 -44,70 -45,154 -3,250 43,96 124,196 245,299 72,60 144,117 216,170 72,54 146,104 222,151 z m 344,-1959 155,-547 34,-38 1316,1177 c 45,40 82,71 109,92 27,22 49,37 66,45 17,9 33,12 46,10 13,-2 27,-7 43,-14 33,-13 82,-54 145,-123 l 43,38 -526,588 -43,-38 c 33,-38 58,-70 75,-95 18,-25 29,-47 35,-65 7,-18 9,-33 7,-46 -3,-13 -7,-26 -12,-38 -14,-27 -66,-81 -158,-164 l -841,-752 c -115,-102 -192,-164 -229,-184 -30,-15 -57,-21 -81,-18 -24,4 -45,15 -63,35 -26,30 -50,80 -70,151 z m 1371,-1300 274,-498 42,-29 1016,1444 c 35,50 64,88 85,115 22,27 40,47 55,59 14,12 29,19 42,19 13,1 28,0 45,-3 35,-5 92,-34 170,-88 l 32,47 -645,454 -33,-46 c 41,-30 72,-55 95,-76 22,-21 38,-39 48,-55 11,-17 16,-31 17,-44 1,-13 0,-26 -3,-39 -7,-29 -46,-94 -117,-196 l -649,-922 c -89,-126 -150,-203 -181,-231 -26,-22 -52,-34 -75,-36 -24,-2 -47,5 -69,20 -33,23 -67,66 -103,131 z m 1740,-133 c -102,-217 -158,-418 -165,-602 -3,-69 0,-138 9,-207 10,-70 26,-135 50,-196 24,-61 57,-115 98,-165 41,-49 92,-87 153,-116 144,-69 309,-56 495,37 231,115 420,329 568,643 36,74 66,147 92,218 25,71 45,141 59,211 14,69 22,138 24,208 2,69 -3,139 -16,210 -9,44 -22,90 -41,135 -19,45 -42,88 -68,128 -27,39 -57,75 -91,106 -34,32 -70,57 -107,74 -80,38 -167,50 -260,37 -92,-12 -186,-48 -281,-105 -99,-61 -193,-143 -283,-246 -90,-104 -168,-227 -236,-370 z m 291,-95 c 52,112 108,214 167,307 58,93 118,172 179,236 66,70 132,119 197,147 65,28 128,27 188,-1 25,-12 49,-30 70,-53 22,-23 40,-53 54,-88 14,-36 22,-77 26,-125 4,-47 0,-100 -11,-160 -17,-91 -47,-195 -89,-312 -42,-116 -98,-248 -167,-395 -102,-215 -209,-385 -322,-508 -72,-79 -139,-131 -203,-156 -63,-25 -127,-23 -193,9 -75,35 -121,105 -137,209 -17,104 -1,232 45,384 28,89 58,175 90,259 32,84 67,166 106,247 z m 1359,-623 c -55,-234 -67,-442 -35,-624 11,-68 29,-135 52,-200 24,-67 54,-127 90,-181 37,-54 80,-101 131,-141 50,-39 108,-66 174,-82 155,-36 314,11 476,141 201,161 341,410 420,748 19,80 34,158 44,232 10,75 15,148 14,219 -1,71 -8,140 -21,208 -12,68 -32,135 -60,202 -18,42 -40,83 -68,124 -28,40 -59,77 -94,111 -34,33 -71,61 -111,85 -40,23 -80,40 -120,49 -86,20 -173,14 -261,-18 -88,-32 -173,-86 -253,-163 -84,-79 -159,-179 -225,-299 -66,-121 -117,-258 -153,-411 z m 304,-32 c 28,120 61,232 99,335 37,103 79,193 126,268 49,83 103,144 161,185 58,41 119,54 184,39 27,-6 54,-19 80,-37 26,-18 50,-43 71,-75 21,-32 38,-71 52,-116 13,-45 21,-98 22,-159 3,-93 -4,-200 -21,-323 -16,-123 -43,-264 -80,-422 -55,-232 -124,-420 -208,-564 -54,-93 -109,-158 -166,-196 -56,-38 -119,-49 -191,-32 -80,19 -140,78 -178,176 -37,98 -50,226 -36,385 8,93 19,184 33,272 14,89 31,177 52,264 z m 1463,-353 c -3,-240 30,-446 100,-616 27,-65 58,-126 95,-185 38,-59 80,-111 127,-157 48,-45 100,-81 158,-109 57,-28 120,-41 188,-42 159,-2 304,78 434,240 162,201 245,474 249,821 1,82 -2,161 -8,236 -6,75 -18,148 -34,217 -16,69 -37,135 -65,199 -26,63 -61,125 -102,184 -27,37 -58,73 -94,106 -36,33 -74,63 -115,88 -41,25 -83,45 -127,59 -44,14 -87,22 -128,22 -88,1 -172,-23 -251,-74 -79,-50 -149,-122 -212,-213 -64,-96 -116,-210 -155,-342 -38,-132 -58,-276 -60,-434 z m 303,35 c 2,123 10,239 25,348 14,109 36,206 65,289 30,92 69,163 117,216 48,52 105,78 172,77 27,0 56,-6 85,-19 30,-12 59,-31 86,-57 27,-27 53,-61 76,-102 23,-42 41,-92 56,-151 22,-90 39,-196 49,-320 11,-123 15,-267 13,-429 -3,-239 -30,-437 -81,-596 -33,-102 -72,-177 -119,-227 -47,-49 -106,-73 -180,-72 -82,1 -153,45 -212,133 -58,87 -97,210 -118,368 -12,92 -21,184 -27,273 -5,90 -8,179 -7,269 z"
   id="path89" />
   <path
   class="fil5"
   d="m 69330,14575 539,-180 51,7 -231,1751 c -8,60 -13,107 -16,141 -2,35 -2,62 1,81 2,19 8,33 18,42 8,10 20,20 35,28 29,21 91,38 184,51 l -7,57 -783,-104 7,-56 c 51,6 91,8 121,8 31,0 55,-2 74,-7 18,-5 32,-12 42,-21 9,-9 17,-20 24,-31 14,-26 30,-100 46,-223 l 148,-1119 c 20,-152 27,-250 23,-292 -4,-34 -15,-60 -31,-77 -16,-18 -38,-29 -64,-32 -39,-5 -94,3 -165,26 z m 1787,365 564,-73 48,16 -563,1674 c -19,57 -33,103 -42,136 -9,34 -14,60 -15,79 -1,19 2,35 9,45 7,12 17,23 29,35 26,25 83,54 172,85 l -19,54 -748,-252 18,-54 c 48,16 87,26 117,32 31,6 55,8 74,6 19,-1 34,-5 45,-12 11,-7 21,-16 30,-26 19,-23 49,-92 88,-209 l 359,-1070 c 50,-146 76,-241 79,-283 3,-34 -2,-61 -15,-81 -13,-21 -31,-35 -57,-44 -37,-13 -93,-15 -166,-5 z m 1184,1350 c 124,-206 261,-363 410,-471 57,-41 116,-76 178,-107 64,-30 127,-52 191,-66 64,-13 128,-17 192,-9 63,7 123,28 181,63 137,83 218,227 243,433 31,256 -43,532 -223,829 -42,70 -86,136 -131,196 -45,61 -93,116 -143,167 -50,50 -103,94 -160,135 -56,39 -118,73 -184,102 -42,17 -88,31 -136,40 -48,10 -96,14 -144,14 -48,0 -94,-6 -139,-17 -45,-11 -85,-27 -120,-48 -76,-46 -134,-111 -175,-196 -40,-84 -62,-182 -67,-293 -4,-116 12,-239 49,-372 37,-132 96,-266 178,-400 z m 239,189 c -64,106 -118,209 -163,309 -45,100 -78,194 -98,280 -22,94 -26,175 -13,245 12,70 47,122 104,157 24,14 51,24 83,29 32,5 66,4 103,-4 37,-9 77,-24 118,-47 42,-23 84,-56 128,-98 66,-65 136,-146 210,-246 74,-99 154,-219 238,-358 123,-204 205,-387 246,-549 26,-103 31,-188 18,-255 -14,-67 -52,-118 -114,-156 -71,-43 -155,-43 -251,1 -95,44 -193,127 -294,250 -59,72 -115,145 -167,218 -52,73 -101,148 -148,224 z m 1258,751 c 160,-180 323,-309 489,-388 63,-31 127,-55 194,-73 68,-19 134,-29 200,-31 65,-2 128,7 190,25 61,19 117,50 167,95 120,106 173,263 160,470 -15,258 -138,516 -368,775 -54,62 -110,118 -164,170 -56,51 -113,97 -171,137 -59,40 -119,75 -182,104 -62,29 -129,51 -200,67 -44,10 -91,15 -140,16 -49,0 -98,-4 -145,-13 -46,-9 -91,-23 -133,-42 -43,-18 -79,-42 -110,-69 -66,-59 -112,-133 -136,-224 -25,-90 -29,-190 -13,-300 17,-115 55,-233 115,-357 60,-124 143,-244 247,-362 z m 202,230 c -83,92 -155,184 -217,274 -63,90 -112,176 -147,258 -38,88 -57,167 -57,238 0,71 25,129 75,173 20,18 45,33 76,44 30,11 63,16 102,14 38,-1 79,-9 124,-24 45,-15 93,-40 144,-74 76,-51 160,-119 251,-204 91,-84 190,-187 298,-309 158,-178 272,-343 341,-495 44,-97 65,-180 64,-248 -1,-68 -29,-126 -84,-174 -62,-55 -144,-70 -246,-44 -102,26 -214,90 -335,192 -71,61 -139,122 -204,185 -64,62 -126,127 -185,194 z m 1952,672 507,259 30,41 -1412,1060 c -49,37 -86,66 -112,88 -27,23 -46,42 -57,57 -12,15 -18,29 -18,42 -1,13 0,29 4,45 6,36 37,91 93,167 l -46,35 -474,-632 46,-34 c 31,40 57,70 79,92 21,22 40,38 56,47 17,10 31,15 45,16 12,0 26,-2 39,-5 29,-8 92,-48 191,-122 l 903,-678 c 123,-92 198,-155 225,-188 21,-26 32,-52 34,-76 1,-24 -6,-47 -23,-68 -23,-32 -68,-65 -134,-99 z m 227,1743 c 216,-104 417,-161 601,-169 69,-3 138,-1 207,8 70,9 135,25 196,49 61,24 116,56 166,97 49,40 88,91 117,152 69,144 58,309 -34,495 -114,232 -327,422 -639,573 -74,35 -147,66 -218,92 -70,26 -141,46 -210,61 -70,14 -139,23 -208,25 -69,3 -139,-2 -210,-15 -45,-8 -90,-22 -136,-40 -45,-19 -88,-41 -128,-67 -40,-27 -76,-57 -107,-91 -32,-34 -57,-69 -75,-106 -38,-80 -51,-166 -38,-259 12,-93 47,-187 104,-282 59,-99 141,-194 244,-285 103,-90 226,-170 368,-238 z m 97,290 c -112,53 -214,110 -306,169 -93,59 -171,119 -235,181 -70,66 -118,132 -146,198 -27,65 -26,128 3,188 12,25 29,48 53,69 23,22 53,40 89,54 35,13 77,22 124,25 47,4 100,-1 160,-12 91,-18 195,-48 311,-91 116,-42 248,-99 395,-170 214,-103 383,-211 506,-324 78,-73 129,-141 154,-204 25,-64 22,-127 -9,-193 -36,-75 -107,-121 -211,-137 -103,-15 -231,1 -383,48 -89,29 -175,59 -259,92 -84,32 -166,68 -246,107 z m 646,1307 c 232,-65 439,-86 622,-63 69,9 136,23 203,44 67,21 128,48 184,82 56,34 105,75 146,125 42,48 71,105 90,170 43,154 3,314 -120,482 -152,208 -395,359 -729,452 -79,22 -156,40 -230,54 -74,13 -147,21 -218,23 -71,2 -140,-1 -209,-11 -68,-9 -137,-27 -204,-52 -43,-16 -86,-37 -127,-63 -41,-26 -80,-55 -115,-88 -34,-33 -64,-69 -89,-108 -26,-39 -44,-78 -55,-117 -24,-85 -22,-173 7,-262 28,-90 78,-176 151,-260 76,-87 173,-166 290,-238 117,-71 252,-128 403,-170 z m 46,302 c -119,33 -230,71 -331,113 -101,42 -189,88 -263,138 -80,53 -139,109 -177,169 -39,60 -49,121 -31,186 8,26 21,52 41,78 19,25 45,48 78,67 32,20 72,35 118,47 46,12 99,17 160,16 92,-2 199,-13 322,-36 122,-21 261,-54 418,-98 229,-65 414,-142 554,-232 90,-58 153,-116 188,-174 36,-58 44,-122 24,-192 -22,-80 -84,-137 -183,-171 -100,-33 -228,-40 -386,-19 -93,12 -183,27 -271,45 -88,17 -175,39 -261,63 z m 1289,1627 283,493 4,50 -1762,122 c -60,4 -108,8 -142,13 -35,4 -61,10 -79,16 -18,6 -31,15 -38,26 -8,10 -15,24 -20,40 -15,33 -19,97 -14,191 l -56,4 -55,-788 57,-4 c 5,50 10,90 16,120 6,31 13,54 22,71 9,17 18,29 29,37 10,7 22,13 35,17 28,9 104,10 227,1 l 1126,-77 c 154,-11 251,-22 291,-35 33,-11 56,-26 70,-46 14,-19 20,-42 19,-69 -3,-39 -23,-91 -59,-156 z m -779,1510 c 240,13 443,61 608,142 62,31 121,66 178,107 56,42 105,88 147,138 42,50 75,105 98,165 24,59 34,122 30,190 -9,159 -99,298 -270,417 -211,148 -490,211 -836,192 -82,-5 -161,-13 -235,-24 -75,-12 -146,-28 -214,-49 -68,-21 -132,-47 -194,-78 -62,-31 -121,-70 -177,-115 -35,-29 -68,-63 -99,-101 -31,-38 -57,-79 -80,-121 -22,-42 -39,-86 -50,-131 -11,-45 -16,-88 -13,-129 5,-88 35,-170 91,-245 55,-76 131,-141 227,-197 101,-58 218,-101 352,-131 134,-29 280,-39 437,-30 z m -55,300 c -124,-7 -240,-7 -350,0 -109,7 -207,22 -293,45 -93,24 -167,59 -223,103 -56,44 -85,99 -89,166 -2,27 3,56 13,86 10,31 27,60 52,90 25,28 57,56 96,82 40,26 89,48 147,67 88,28 193,52 316,71 122,19 265,33 427,42 238,13 438,0 600,-40 104,-25 182,-60 234,-103 53,-44 81,-101 85,-174 5,-83 -35,-157 -118,-221 -84,-64 -203,-112 -359,-143 -92,-19 -182,-34 -271,-46 -89,-12 -178,-20 -267,-25 z m 611,1967 102,559 -14,49 -1701,-476 c -58,-16 -104,-28 -138,-36 -34,-7 -60,-10 -79,-10 -19,-1 -35,3 -45,11 -11,7 -22,18 -33,31 -24,26 -50,85 -76,175 l -55,-15 213,-760 55,15 c -13,49 -21,88 -25,119 -5,30 -6,54 -3,73 2,19 7,34 15,45 7,10 16,20 27,28 24,18 94,44 214,78 l 1086,304 c 148,42 244,63 286,64 35,1 62,-5 81,-19 20,-14 34,-33 41,-59 11,-38 10,-94 -3,-167 z m -1276,1203 c 217,104 387,225 508,363 46,52 87,108 124,167 36,60 64,121 84,184 19,62 29,125 28,189 -1,64 -16,126 -46,187 -69,144 -204,238 -408,283 -251,56 -533,9 -846,-141 -74,-36 -144,-73 -208,-112 -65,-39 -124,-81 -179,-126 -55,-46 -105,-94 -150,-147 -45,-52 -85,-110 -119,-173 -22,-40 -40,-84 -54,-131 -14,-47 -23,-95 -28,-142 -4,-48 -3,-95 4,-140 6,-46 19,-88 37,-125 38,-80 97,-144 178,-192 80,-49 175,-80 285,-95 115,-16 239,-11 374,12 136,25 274,71 416,139 z m -165,257 c -112,-54 -220,-98 -323,-133 -104,-36 -201,-59 -288,-71 -96,-13 -177,-9 -246,10 -68,20 -116,60 -145,120 -12,24 -19,53 -21,85 -3,32 2,66 14,102 11,36 31,74 57,113 27,39 64,78 110,118 71,60 159,122 266,186 105,64 232,131 378,201 215,104 405,167 570,192 106,16 191,14 256,-6 65,-20 113,-63 145,-129 36,-74 27,-158 -25,-249 -53,-91 -145,-180 -277,-269 -78,-52 -156,-100 -234,-145 -77,-45 -157,-87 -237,-125 z m -164,2058 -117,557 -32,40 -1393,-1085 c -48,-37 -86,-66 -115,-85 -28,-20 -51,-33 -69,-40 -18,-8 -33,-10 -46,-7 -13,3 -27,9 -42,16 -32,16 -78,60 -137,134 l -45,-35 485,-623 45,35 c -30,40 -53,74 -68,100 -16,27 -26,49 -31,67 -5,19 -6,34 -3,47 3,12 8,25 14,36 16,26 71,77 169,153 l 890,693 c 122,95 202,151 241,169 31,13 59,17 82,12 23,-5 44,-18 60,-39 24,-31 45,-83 60,-155 z m -1179,1390 -221,524 -38,34 -1162,-1331 c -39,-46 -72,-81 -96,-106 -24,-24 -44,-42 -60,-52 -16,-11 -31,-16 -44,-15 -13,0 -28,3 -44,8 -35,9 -89,43 -160,104 l -38,-42 595,-519 37,42 c -37,34 -65,63 -86,86 -20,23 -34,43 -42,60 -9,17 -13,32 -12,45 0,13 3,26 7,39 10,28 55,88 136,182 l 742,850 c 101,116 170,186 204,211 28,19 55,28 79,28 23,-1 46,-10 66,-28 30,-25 59,-72 89,-140 z m -1325,1076 -288,491 -42,28 -978,-1471 c -33,-50 -60,-89 -81,-117 -21,-28 -39,-47 -53,-60 -14,-13 -29,-20 -42,-20 -13,-2 -28,-1 -45,2 -35,4 -93,31 -172,83 l -31,-48 657,-437 32,48 c -42,29 -74,53 -97,73 -23,20 -40,38 -50,54 -11,16 -17,30 -18,43 -1,13 0,26 2,39 6,30 43,96 111,199 l 625,939 c 85,129 144,208 175,236 25,23 50,36 74,38 24,3 47,-3 69,-18 33,-22 69,-64 107,-128 z m -1615,919 -385,420 -47,18 -647,-1643 c -22,-57 -41,-101 -55,-132 -15,-31 -28,-54 -40,-70 -11,-15 -23,-25 -36,-28 -12,-5 -27,-7 -44,-8 -36,-3 -98,12 -186,45 l -21,-53 735,-289 21,53 c -47,19 -83,36 -110,52 -27,14 -47,28 -61,41 -14,14 -22,26 -26,39 -4,12 -6,26 -7,39 0,30 23,102 68,217 l 413,1050 c 57,143 98,233 122,267 20,28 41,45 64,53 23,7 47,6 72,-3 37,-15 80,-49 131,-103 z"
   id="path91" />
  </g>
  <path
   class="fil6"
   d="m 69092,11438 c 3519,136 7374,2539 9624,5181 2331,2382 3768,5643 3768,9239 0,7296 -5914,13211 -13210,13211 -7296,0 -13845,-6671 -14289,-13708 -185,-8998 6761,-14334 14107,-13923 z m -917,-32 c 7296,0 13210,5915 13210,13211 0,7296 -5914,13211 -13210,13211 -7296,0 -13211,-5915 -13211,-13211 0,-7296 5915,-13211 13211,-13211 z"
   id="path94" />
  <g
   clip-path="url(#id5)"
   id="g103">
   <g
   id="_2741013316544">
    <rect
   class="fil7"
   x="62404"
   y="22269"
   width="22585"
   height="20217"
   id="rect96"
   style="fill:url(#id8)" />
    <polygon
   class="fil8"
   points="93110,33541 78294,26682 76637,14421 90202,17243 "
   id="polygon98" />
    <polygon
   class="fil8"
   points="69905,39054 70721,50333 55904,43474 54248,31213 68558,37822 "
   id="polygon100" />
   </g>
  </g>
  <path
   class="fil2"
   d="m 69092,11438 c 3519,136 7374,2539 9624,5181 2331,2382 3768,5643 3768,9239 0,7296 -5914,13211 -13210,13211 -7296,0 -13845,-6671 -14289,-13708 -185,-8998 6761,-14334 14107,-13923 z m -917,-32 c 7296,0 13210,5915 13210,13211 0,7296 -5914,13211 -13210,13211 -7296,0 -13211,-5915 -13211,-13211 0,-7296 5915,-13211 13211,-13211 z"
   id="path105" />
  <path
   class="fil9"
   d="m 68175,35755 c 6151,0 11138,-4987 11138,-11138 0,-6152 -4987,-11138 -11138,-11138 -6152,0 -11139,4986 -11139,11138 0,6151 4987,11138 11139,11138 z m 0,0 c 6151,0 11137,-4820 11137,-10972 0,-6151 -4764,-11008 -10915,-11008 -6152,0 -11139,4986 -11139,11138 0,6151 4765,10842 10917,10842 z"
   id="path107" />
  <path
   class="fil9"
   d="m 68290,32493 c 4238,0 7674,-3488 7674,-7791 0,-4302 -3436,-7790 -7674,-7790 -4238,0 -7674,3488 -7674,7790 0,4303 3436,7791 7674,7791 z m 0,0 c 4238,0 7672,-3307 7672,-7610 0,-4303 -3254,-7731 -7492,-7731 -4238,0 -7674,3488 -7674,7790 0,4303 3256,7551 7494,7551 z"
   id="path109" />
 </g>
</svg>
